<svg xmlns="http://www.w3.org/2000/svg" viewBox="0 0 600 450" width="100%" height="100%">
  <rect width="600" height="450" fill="#FFFFFF" />
  <rect width="560" height="410" x="20" y="20" fill="#E1F5EE" rx="8" />
  <circle cx="300" cy="200" r="80" fill="#0F6E56" opacity="0.1" />
  
  <!-- Blood drop -->
  <g transform="translate(300, 200)">
    <path d="M 0 -70 C 40 -20, 50 10, 50 40 C 50 68, 28 90, 0 90 C -28 90, -50 68, -50 40 C -50 10, -40 -20, 0 -70 Z" fill="#D32F2F" />
    <path d="M -15 20 C -15 10, -5 0, 0 0 C 5 0, 15 10, 15 20 C 15 30, 5 40, 0 40 C -5 40, -15 30, -15 20 Z" fill="#FFCDD2" opacity="0.4" />
    <!-- Heart pulse line -->
    <path d="M -90 40 L -40 40 L -30 20 L -15 70 L 0 -10 L 15 50 L 25 35 L 35 40 L 90 40" stroke="#0F6E56" stroke-width="4" stroke-linecap="round" stroke-linejoin="round" fill="none" />
  </g>
  
  <text x="300" y="340" text-anchor="middle" font-family="'Inter', sans-serif" font-size="20" font-weight="700" fill="#0F6E56">Blood Donation Camp</text>
  <text x="300" y="370" text-anchor="middle" font-family="'Inter', sans-serif" font-size="14" font-weight="500" fill="#1D9E75">Tiruvarur Govt Medical College Partnership</text>
</svg>
